<svg width="1360" height="174" viewBox="0 0 1360 174" fill="none" xmlns="http://www.w3.org/2000/svg">
<path d="M1360 86.6249V96.7879C1352.3 96.7879 1346.93 98.3794 1343.88 101.563C1340.83 104.746 1339.3 109.975 1339.3 117.25V136.895C1339.3 143.852 1338.5 149.718 1336.91 154.492C1335.36 159.221 1332.97 163.018 1329.73 165.883C1326.5 168.748 1322.4 170.817 1317.44 172.09C1312.47 173.363 1306.62 174 1299.88 174V157.835C1305.16 157.835 1309.29 157.062 1312.25 155.515C1315.21 153.924 1317.26 151.514 1318.39 148.285C1319.58 145.011 1320.17 140.873 1320.17 135.871V111.044C1320.17 107.542 1320.69 104.314 1321.74 101.358C1322.79 98.3567 1324.73 95.7648 1327.55 93.5821C1330.37 91.354 1334.4 89.6488 1339.64 88.4665C1344.88 87.2387 1351.67 86.6249 1360 86.6249ZM1299.88 0C1306.62 0 1312.47 0.636613 1317.44 1.90984C1322.4 3.18306 1326.5 5.25205 1329.73 8.11681C1332.97 10.9816 1335.36 14.8013 1336.91 19.5758C1338.5 24.305 1339.3 30.1482 1339.3 37.1054V56.6813C1339.3 64.0023 1340.83 69.2544 1343.88 72.4375C1346.93 75.5751 1352.3 77.1439 1360 77.1439V87.3751C1351.67 87.3751 1344.88 86.7613 1339.64 85.5335C1334.4 84.3058 1330.37 82.6005 1327.55 80.4179C1324.73 78.2352 1322.79 75.666 1321.74 72.7103C1320.69 69.7091 1320.17 66.4579 1320.17 62.9565V38.1286C1320.17 33.0811 1319.58 28.9432 1318.39 25.7146C1317.26 22.4406 1315.21 20.0306 1312.25 18.4845C1309.29 16.9385 1305.16 16.1654 1299.88 16.1654V0ZM1360 77.1439V96.7879H1341.08V77.1439H1360Z" fill="#191919"/>
<path d="M1286.9 86.9663C1286.9 101.881 1284.17 114.704 1278.71 125.436C1273.24 136.122 1265.75 144.352 1256.23 150.127C1246.76 155.857 1235.98 158.722 1223.92 158.722C1211.8 158.722 1200.98 155.857 1191.46 150.127C1181.99 144.352 1174.52 136.099 1169.06 125.368C1163.59 114.636 1160.86 101.836 1160.86 86.9663C1160.86 72.0514 1163.59 59.2509 1169.06 48.5649C1174.52 37.8334 1181.99 29.6029 1191.46 23.8734C1200.98 18.0984 1211.8 15.2109 1223.92 15.2109C1235.98 15.2109 1246.76 18.0984 1256.23 23.8734C1265.75 29.6029 1273.24 37.8334 1278.71 48.5649C1284.17 59.2509 1286.9 72.0514 1286.9 86.9663ZM1266 86.9663C1266 75.5982 1264.15 66.0263 1260.47 58.2505C1256.82 50.4293 1251.81 44.5179 1245.44 40.5163C1239.1 36.4693 1231.93 34.4457 1223.92 34.4457C1215.85 34.4457 1208.66 36.4693 1202.33 40.5163C1196 44.5179 1190.99 50.4293 1187.3 58.2505C1183.65 66.0263 1181.83 75.5982 1181.83 86.9663C1181.83 98.3344 1183.65 107.929 1187.3 115.75C1190.99 123.526 1196 129.438 1202.33 133.485C1208.66 137.486 1215.85 139.487 1223.92 139.487C1231.93 139.487 1239.1 137.486 1245.44 133.485C1251.81 129.438 1256.82 123.526 1260.47 115.75C1264.15 107.929 1266 98.3344 1266 86.9663Z" fill="#191919"/>
<path d="M1025.49 17.1211H1046.39V119.707H1047.69L1118.88 17.1211H1138.42V156.812H1117.31V54.363H1116.01L1044.96 156.812H1025.49V17.1211Z" fill="#191919"/>
<path d="M880.471 156.812V138.532L884.57 138.396C890.126 138.259 894.499 136.372 897.687 132.735C900.921 129.097 903.266 123.231 904.724 115.137C906.227 107.043 907.229 96.243 907.73 82.7377L910.121 17.1211H998.593V156.812H977.756V34.9917H930.002L927.815 88.3308C927.223 103.291 925.72 115.864 923.306 126.05C920.892 136.19 916.793 143.853 911.009 149.036C905.27 154.22 897.095 156.812 886.483 156.812H880.471Z" fill="#191919"/>
<path d="M868.588 86.9663C868.588 101.881 865.855 114.704 860.39 125.436C854.924 136.122 847.432 144.352 837.913 150.127C828.44 155.857 817.668 158.722 805.598 158.722C793.483 158.722 782.666 155.857 773.147 150.127C763.674 144.352 756.204 136.099 750.739 125.368C745.273 114.636 742.541 101.836 742.541 86.9663C742.541 72.0514 745.273 59.2509 750.739 48.5649C756.204 37.8334 763.674 29.6029 773.147 23.8734C782.666 18.0984 793.483 15.2109 805.598 15.2109C817.668 15.2109 828.44 18.0984 837.913 23.8734C847.432 29.6029 854.924 37.8334 860.39 48.5649C865.855 59.2509 868.588 72.0514 868.588 86.9663ZM847.683 86.9663C847.683 75.5982 845.838 66.0263 842.149 58.2505C838.505 50.4293 833.495 44.5179 827.119 40.5163C820.788 36.4693 813.614 34.4457 805.598 34.4457C797.537 34.4457 790.341 36.4693 784.01 40.5163C777.679 44.5179 772.669 50.4293 768.98 58.2505C765.336 66.0263 763.514 75.5982 763.514 86.9663C763.514 98.3344 765.336 107.929 768.98 115.75C772.669 123.526 777.679 129.438 784.01 133.485C790.341 137.486 797.537 139.487 805.598 139.487C813.614 139.487 820.788 137.486 827.119 133.485C833.495 129.438 838.505 123.526 842.149 115.75C845.838 107.929 847.683 98.3344 847.683 86.9663Z" fill="#191919"/>
<path d="M644.509 33.2178H669.718C680.376 33.2178 689.827 35.5596 698.07 40.2432C706.36 44.8814 712.85 51.4067 717.541 59.8191C722.278 68.186 724.646 77.9171 724.646 89.0123C724.646 100.017 722.278 109.68 717.541 118.001C712.85 126.322 706.36 132.825 698.07 137.509C689.827 142.147 680.376 144.466 669.718 144.466H644.509C633.851 144.466 624.378 142.17 616.088 137.577C607.799 132.939 601.286 126.482 596.549 118.206C591.858 109.93 589.512 100.267 589.512 89.217C589.512 78.0762 591.881 68.2997 596.618 59.8873C601.354 51.4749 607.845 44.9269 616.088 40.2432C624.378 35.5596 633.851 33.2178 644.509 33.2178ZM644.509 51.4294C637.221 51.4294 631.005 52.9528 625.858 55.9994C620.711 59.0006 616.771 63.3205 614.039 68.959C611.306 74.5976 609.94 81.3503 609.94 89.217C609.94 96.9018 611.306 103.518 614.039 109.066C616.817 114.568 620.78 118.819 625.926 121.821C631.073 124.776 637.267 126.254 644.509 126.254H669.787C677.028 126.254 683.2 124.776 688.301 121.821C693.447 118.819 697.364 114.545 700.052 108.997C702.784 103.404 704.151 96.7426 704.151 89.0123C704.151 81.2366 702.784 74.5521 700.052 68.959C697.364 63.3205 693.447 59.0006 688.301 55.9994C683.2 52.9528 677.028 51.4294 669.787 51.4294H644.509ZM667.532 14.665V162.541H646.832V14.665H667.532Z" fill="#191919"/>
<path d="M471.668 35.2646V17.1211H579.953V35.2646H536.297V156.812H515.255V35.2646H471.668Z" fill="#191919"/>
<path d="M359.357 156.812V17.1211H409.23C420.115 17.1211 429.133 19.0991 436.284 23.0552C443.435 27.0113 448.786 32.4225 452.339 39.2889C455.891 46.1097 457.668 53.7946 457.668 62.3434C457.668 70.9376 455.869 78.6679 452.27 85.5343C448.718 92.3551 443.343 97.7663 436.147 101.768C428.997 105.724 420.001 107.702 409.161 107.702H374.866V89.8314H407.249C414.126 89.8314 419.705 88.6491 423.987 86.2846C428.268 83.8745 431.411 80.6005 433.415 76.4625C435.419 72.3245 436.421 67.6182 436.421 62.3434C436.421 57.0686 435.419 52.3849 433.415 48.2924C431.411 44.1999 428.245 40.9941 423.918 38.675C419.637 36.3559 413.989 35.1964 406.975 35.1964H380.468V156.812H359.357Z" fill="#191919"/>
<path d="M336.885 86.9663C336.885 101.881 334.153 114.704 328.687 125.436C323.222 136.122 315.729 144.352 306.21 150.127C296.737 155.857 285.965 158.722 273.896 158.722C261.781 158.722 250.964 155.857 241.445 150.127C231.971 144.352 224.502 136.099 219.036 125.368C213.571 114.636 210.838 101.836 210.838 86.9663C210.838 72.0514 213.571 59.2509 219.036 48.5649C224.502 37.8334 231.971 29.6029 241.445 23.8734C250.964 18.0984 261.781 15.2109 273.896 15.2109C285.965 15.2109 296.737 18.0984 306.21 23.8734C315.729 29.6029 323.222 37.8334 328.687 48.5649C334.153 59.2509 336.885 72.0514 336.885 86.9663ZM315.98 86.9663C315.98 75.5982 314.135 66.0263 310.446 58.2505C306.802 50.4293 301.792 44.5179 295.416 40.5163C289.085 36.4693 281.912 34.4457 273.896 34.4457C265.834 34.4457 258.638 36.4693 252.307 40.5163C245.976 44.5179 240.966 50.4293 237.277 58.2505C233.633 66.0263 231.812 75.5982 231.812 86.9663C231.812 98.3344 233.633 107.929 237.277 115.75C240.966 123.526 245.976 129.438 252.307 133.485C258.638 137.486 265.834 139.487 273.896 139.487C281.912 139.487 289.085 137.486 295.416 133.485C301.792 129.438 306.802 123.526 310.446 115.75C314.135 107.929 315.98 98.3344 315.98 86.9663Z" fill="#191919"/>
<path d="M186.914 17.1211V156.812H165.872V35.1281H100.013V156.812H78.9709V17.1211H186.914Z" fill="#191919"/>
<path d="M0 87.3751V77.1439C7.6972 77.1439 13.0716 75.5751 16.1231 72.4375C19.1747 69.2544 20.7005 64.0023 20.7005 56.6813V37.1054C20.7005 30.1482 21.4747 24.305 23.0233 19.5758C24.6174 14.8013 27.0313 10.9816 30.265 8.11681C33.4988 5.25205 37.5979 3.18306 42.5623 1.90984C47.5268 0.636613 53.3794 0 60.1202 0V16.1654C54.8369 16.1654 50.715 16.9385 47.7545 18.4845C44.7941 20.0306 42.7218 22.4406 41.5376 25.7146C40.3989 28.9432 39.8296 33.0811 39.8296 38.1286V62.9565C39.8296 66.4579 39.3058 69.7091 38.2583 72.7103C37.2107 75.666 35.2751 78.2352 32.4512 80.4179C29.6274 82.6005 25.5966 84.3058 20.3589 85.5335C15.1211 86.7613 8.33484 87.3751 0 87.3751ZM60.1202 174C53.3794 174 47.5268 173.363 42.5623 172.09C37.5979 170.817 33.4988 168.748 30.265 165.883C27.0313 163.018 24.6174 159.221 23.0233 154.492C21.4747 149.718 20.7005 143.852 20.7005 136.895V117.25C20.7005 109.975 19.1747 104.746 16.1231 101.563C13.0716 98.3794 7.6972 96.7879 0 96.7879V86.6249C8.33484 86.6249 15.1211 87.2387 20.3589 88.4665C25.5966 89.6488 29.6274 91.354 32.4512 93.5821C35.2751 95.7648 37.2107 98.3567 38.2583 101.358C39.3058 104.314 39.8296 107.542 39.8296 111.044V135.871C39.8296 140.873 40.3989 145.011 41.5376 148.285C42.7218 151.514 44.7941 153.924 47.7545 155.515C50.715 157.062 54.8369 157.835 60.1202 157.835V174ZM0 96.7879V77.1439H18.9242V96.7879H0Z" fill="#191919"/>
</svg>
