<svg width="1360" height="203" viewBox="0 0 1360 203" fill="none" xmlns="http://www.w3.org/2000/svg">
<path d="M-8.87029e-05 101.443V89.5643C8.92202 89.5643 15.1517 87.7429 18.6888 84.1001C22.226 80.4046 23.9946 74.3069 23.9946 65.8072V43.0795C23.9946 35.0021 24.8921 28.2182 26.6871 22.7276C28.5348 17.1843 31.3329 12.7496 35.0812 9.42365C38.8296 6.09765 43.581 3.69554 49.3355 2.21733C55.09 0.73911 61.874 0 69.6874 0V18.7681C63.5634 18.7681 58.7855 19.6656 55.354 21.4606C51.9224 23.2556 49.5203 26.0536 48.1476 29.8548C46.8278 33.6031 46.1679 38.4073 46.1679 44.2674V73.0927C46.1679 77.1578 45.5608 80.9325 44.3465 84.4169C43.1323 87.8485 40.8885 90.8313 37.6153 93.3654C34.3421 95.8995 29.6699 97.8793 23.5986 99.3047C17.5274 100.73 9.66113 101.443 -8.87029e-05 101.443ZM69.6874 202.015C61.874 202.015 55.09 201.275 49.3355 199.797C43.581 198.319 38.8296 195.917 35.0812 192.591C31.3329 189.265 28.5348 184.857 26.6871 179.366C24.8921 173.823 23.9946 167.012 23.9946 158.935V136.128C23.9946 127.681 22.226 121.61 18.6888 117.914C15.1517 114.219 8.92202 112.371 -8.87029e-05 112.371V100.572C9.66113 100.572 17.5274 101.284 23.5986 102.71C29.6699 104.083 34.3421 106.062 37.6153 108.649C40.8885 111.183 43.1323 114.192 44.3465 117.677C45.5608 121.108 46.1679 124.857 46.1679 128.922V157.747C46.1679 163.554 46.8278 168.359 48.1476 172.16C49.5203 175.908 51.9224 178.706 55.354 180.554C58.7855 182.349 63.5634 183.246 69.6874 183.246V202.015ZM-8.87029e-05 112.371V89.5643H21.9356V112.371H-8.87029e-05ZM186.092 182.059L131.609 109.362H114.345V182.059H89.8754V19.8768H114.345V88.3764H122.343L183.637 19.8768H213.492L148.635 92.4943L215.946 182.059H186.092ZM366.977 100.968C366.977 118.284 363.809 133.172 357.474 145.631C351.139 158.038 342.454 167.593 331.42 174.298C320.439 180.95 307.953 184.276 293.963 184.276C279.92 184.276 267.382 180.95 256.348 174.298C245.367 167.593 236.709 158.011 230.373 145.552C224.038 133.093 220.87 118.231 220.87 100.968C220.87 83.6514 224.038 68.79 230.373 56.3835C236.709 43.9242 245.367 34.3686 256.348 27.7166C267.382 21.0118 279.92 17.6594 293.963 17.6594C307.953 17.6594 320.439 21.0118 331.42 27.7166C342.454 34.3686 351.139 43.9242 357.474 56.3835C363.809 68.79 366.977 83.6514 366.977 100.968ZM342.744 100.968C342.744 87.7693 340.606 76.6562 336.33 67.6285C332.107 58.5481 326.299 51.6849 318.908 47.0391C311.57 42.3404 303.255 39.9911 293.963 39.9911C284.619 39.9911 276.277 42.3404 268.939 47.0391C261.601 51.6849 255.793 58.5481 251.517 67.6285C247.294 76.6562 245.182 87.7693 245.182 100.968C245.182 114.166 247.294 125.306 251.517 134.386C255.793 143.414 261.601 150.277 268.939 154.975C276.277 159.621 284.619 161.944 293.963 161.944C303.255 161.944 311.57 159.621 318.908 154.975C326.299 150.277 332.107 143.414 336.33 134.386C340.606 125.306 342.744 114.166 342.744 100.968ZM393.025 182.059V19.8768H417.495V90.3562H498.348V19.8768H522.897V182.059H498.348V111.342H417.495V182.059H393.025ZM546.074 40.9414V19.8768H671.591V40.9414H620.988V182.059H596.598V40.9414H546.074ZM689.403 182.059H663.429L721.792 19.8768H750.063L808.426 182.059H782.452L736.601 49.3356H735.334L689.403 182.059ZM693.759 118.548H778.017V139.137H693.759V118.548ZM923.603 182.059L869.12 109.362H851.857V182.059H827.387V19.8768H851.857V88.3764H859.855L921.148 19.8768H951.003L886.146 92.4943L953.458 182.059H923.603ZM963.668 40.9414V19.8768H1089.18V40.9414H1038.58V182.059H1014.19V40.9414H963.668ZM1129.65 85.288H1173.36C1185.4 85.288 1195.64 87.2414 1204.08 91.1481C1212.53 95.0548 1218.97 100.572 1223.41 107.699C1227.89 114.826 1230.11 123.22 1230.06 132.881C1230.11 142.543 1227.89 151.069 1223.41 158.46C1218.97 165.851 1212.53 171.632 1204.08 175.803C1195.64 179.973 1185.4 182.059 1173.36 182.059H1112.62V19.8768H1137.17V161.469H1173.36C1180.38 161.469 1186.29 160.096 1191.1 157.351C1195.95 154.606 1199.62 151.042 1202.1 146.661C1204.64 142.279 1205.91 137.58 1205.91 132.565C1205.91 125.279 1203.11 119.023 1197.51 113.797C1191.92 108.517 1183.86 105.877 1173.36 105.877H1129.65V85.288ZM1269.57 19.8768V182.059H1245.03V19.8768H1269.57ZM1359.41 100.572V112.371C1350.49 112.371 1344.26 114.219 1340.72 117.914C1337.18 121.61 1335.42 127.681 1335.42 136.128V158.935C1335.42 167.012 1334.49 173.823 1332.64 179.366C1330.85 184.857 1328.08 189.265 1324.33 192.591C1320.58 195.917 1315.83 198.319 1310.08 199.797C1304.32 201.275 1297.54 202.015 1289.72 202.015V183.246C1295.85 183.246 1300.62 182.349 1304.06 180.554C1307.49 178.706 1309.86 175.908 1311.18 172.16C1312.56 168.359 1313.24 163.554 1313.24 157.747V128.922C1313.24 124.857 1313.85 121.108 1315.06 117.677C1316.28 114.192 1318.52 111.183 1321.8 108.649C1325.07 106.062 1329.74 104.083 1335.81 102.71C1341.88 101.284 1349.75 100.572 1359.41 100.572ZM1289.72 0C1297.54 0 1304.32 0.73911 1310.08 2.21733C1315.83 3.69554 1320.58 6.09765 1324.33 9.42365C1328.08 12.7496 1330.85 17.1843 1332.64 22.7276C1334.49 28.2182 1335.42 35.0021 1335.42 43.0795V65.8072C1335.42 74.3069 1337.18 80.4046 1340.72 84.1001C1344.26 87.7429 1350.49 89.5643 1359.41 89.5643V101.443C1349.75 101.443 1341.88 100.73 1335.81 99.3047C1329.74 97.8793 1325.07 95.8995 1321.8 93.3654C1318.52 90.8313 1316.28 87.8485 1315.06 84.4169C1313.85 80.9325 1313.24 77.1578 1313.24 73.0927V44.2674C1313.24 38.4073 1312.56 33.6031 1311.18 29.8548C1309.86 26.0536 1307.49 23.2556 1304.06 21.4606C1300.62 19.6656 1295.85 18.7681 1289.72 18.7681V0ZM1359.41 89.5643V112.371H1337.47V89.5643H1359.41Z" fill="#191919"/>
</svg>
